<svg xmlns="http://www.w3.org/2000/svg" xmlns:xlink="http://www.w3.org/1999/xlink" width="289.971" height="133.121" viewBox="0 0 289.971 133.121"><defs><clipPath id="clip-path"><rect id="Rectangle_2" data-name="Rectangle 2" width="289.969" height="133.121" fill="none"></rect></clipPath></defs><g id="Group_3" data-name="Group 3" transform="translate(0 0)"><path id="Path_1" data-name="Path 1" d="M39.313,0,0,21.458V40.637L39.313,19.179,78.627,40.637V21.458Z" transform="translate(0 0.002)" fill="#fff"></path><path id="Path_2" data-name="Path 2" d="M0,27.749V77.755L39.314,56.3l22.467,12.26V80.21L39.314,67.945,0,89.407v19.174L39.314,87.124l39.314,21.458V58.576L39.314,37.118,16.847,49.383V37.731L39.314,25.466,78.627,46.928V27.749L39.314,6.291Z" transform="translate(0.002 24.539)" fill="#fff"></path><g id="Group_2" data-name="Group 2" transform="translate(0.002 0)"><g id="Group_1" data-name="Group 1" clip-path="url(#clip-path)"><path id="Path_3" data-name="Path 3" d="M21.466,34.156V32.118h5.307v2.445c0,2.553,1.117,3.469,2.906,3.469s2.906-.916,2.906-3.572c0-2.955-1.122-4.841-4.792-8.056-4.694-4.131-6.223-7.041-6.223-11.123,0-5.611,2.906-8.874,8.364-8.874S38.1,9.67,38.1,15.384v1.48H32.79V15.026c0-2.548-1.019-3.518-2.808-3.518s-2.8.97-2.8,3.42c0,2.6,1.171,4.488,4.846,7.7,4.689,4.136,6.169,6.992,6.169,11.427,0,5.816-2.96,9.08-8.467,9.08s-8.262-3.263-8.262-8.977" transform="translate(83.72 24.99)" fill="#fff"></path><path id="Path_4" data-name="Path 4" d="M28.1,33.751V6.511h5.611V34.157c0,2.553,1.073,3.469,2.857,3.469s2.857-.916,2.857-3.469V6.511h5.4v27.24c0,5.714-2.857,8.977-8.364,8.977S28.1,39.464,28.1,33.751" transform="translate(109.585 25.396)" fill="#fff"></path><path id="Path_5" data-name="Path 5" d="M34.929,6.511h8.007l3.572,25.554h.1L50.178,6.511h8.012V42.218H52.883V15.185h-.1L48.7,42.218H44.008L39.927,15.185h-.1V42.218h-4.9Z" transform="translate(136.225 25.397)" fill="#fff"></path><path id="Path_6" data-name="Path 6" d="M43.133,6.511H51.14l3.572,25.554h.1L58.382,6.511h8.012V42.218H61.087V15.185h-.1L56.9,42.218H52.213L48.131,15.185h-.1V42.218h-4.9Z" transform="translate(168.223 25.397)" fill="#fff"></path><rect id="Rectangle_1" data-name="Rectangle 1" width="5.611" height="35.707" transform="translate(251.562 31.909)" fill="#fff"></rect><path id="Path_7" data-name="Path 7" d="M61.5,11.612H55.637v-5.1H72.979v5.1H67.113V42.218H61.5Z" transform="translate(216.992 25.397)" fill="#fff"></path><path id="Path_8" data-name="Path 8" d="M21.466,44.078V24.9c0-5.513,2.857-8.776,8.266-8.776s8.262,3.263,8.262,8.776v3.773H32.687V24.541c0-2.347-1.122-3.317-2.8-3.317s-2.808.97-2.808,3.317V44.485c0,2.347,1.122,3.268,2.808,3.268s2.8-.921,2.8-3.268V39.026h5.307v5.052c0,5.508-2.857,8.771-8.262,8.771s-8.266-3.263-8.266-8.771" transform="translate(83.72 62.883)" fill="#fff"></path><path id="Path_9" data-name="Path 9" d="M28.13,16.228H33.74V30.766h6.017V16.228h5.611V51.935H39.758V35.867H33.74V51.935H28.13Z" transform="translate(109.708 63.291)" fill="#fff"></path><path id="Path_10" data-name="Path 10" d="M35.064,43.467V16.227h5.611V43.873c0,2.553,1.073,3.469,2.857,3.469s2.857-.916,2.857-3.469V16.227h5.4v27.24c0,5.714-2.857,8.977-8.364,8.977s-8.364-3.263-8.364-8.977" transform="translate(136.753 63.289)" fill="#fff"></path><path id="Path_11" data-name="Path 11" d="M41.894,16.227h8.315c5.812,0,8.311,2.7,8.311,8.213v2.2c0,3.67-1.171,6.017-3.67,7.037v.1c2.8.867,3.724,3.518,3.724,7.551V47.6a10.483,10.483,0,0,0,.613,4.337H53.473c-.309-.916-.515-1.48-.515-4.386V41.017c0-3.312-.965-4.386-3.518-4.386H47.5v15.3H41.894Zm7.649,15.3c2.092,0,3.366-.916,3.366-3.773V25c0-2.553-.867-3.675-2.857-3.675H47.5v10.2Z" transform="translate(163.391 63.289)" fill="#fff"></path><path id="Path_12" data-name="Path 12" d="M48.62,44.078V24.9c0-5.513,2.857-8.776,8.266-8.776s8.262,3.263,8.262,8.776v3.773H59.841V24.541c0-2.347-1.122-3.317-2.8-3.317s-2.808.97-2.808,3.317V44.485c0,2.347,1.122,3.268,2.808,3.268s2.8-.921,2.8-3.268V39.026h5.307v5.052c0,5.508-2.857,8.771-8.262,8.771s-8.266-3.263-8.266-8.771" transform="translate(189.623 62.883)" fill="#fff"></path><path id="Path_13" data-name="Path 13" d="M55.284,16.228h5.611V30.766h6.017V16.228h5.611V51.935H66.912V35.867H60.895V51.935H55.284Z" transform="translate(215.613 63.291)" fill="#fff"></path></g></g></g></svg>